<svg
    xmlns="http://www.w3.org/2000/svg"
    viewBox="0 0 1254 1254"
    role="img"
    aria-labelledby="title"
>
  <title id="title">Logo VIVAYA</title>

  <defs>
    <linearGradient id="vivayaGreen" x1="0" y1="0" x2="1" y2="1">
      <stop offset="0%" stop-color="#9BE600"/>
      <stop offset="55%" stop-color="#7BCB00"/>
      <stop offset="100%" stop-color="#5EAE00"/>
    </linearGradient>

    <linearGradient id="vivayaOrange" x1="0" y1="0" x2="1" y2="1">
      <stop offset="0%" stop-color="#FFB000"/>
      <stop offset="50%" stop-color="#FF8500"/>
      <stop offset="100%" stop-color="#F55A00"/>
    </linearGradient>
  </defs>

  <g transform="translate(91 15)">
    <path
      d="M 936 361 L 928 358 L 914 359 L 905 364 L 899 370 L 895 378 L 894 392 L 901 446 L 901 492 L 893 553 L 883 590 L 870 624 L 854 657 L 839 683 L 815 717 L 770 765 L 748 784 L 713 809 L 683 826 L 654 839 L 645 847 L 640 857 L 640 867 L 644 877 L 651 884 L 661 888 L 670 888 L 692 881 L 748 851 L 795 817 L 831 783 L 853 758 L 886 712 L 904 681 L 923 641 L 940 593 L 952 541 L 956 511 L 957 447 L 954 414 L 945 372 Z M 111 345 L 105 354 L 98 377 L 91 412 L 87 445 L 86 500 L 93 557 L 106 607 L 125 655 L 156 711 L 182 747 L 209 778 L 256 821 L 289 845 L 347 877 L 405 898 L 463 910 L 519 912 L 535 905 L 544 892 L 545 878 L 541 868 L 534 861 L 520 856 L 480 856 L 443 851 L 415 844 L 369 827 L 323 802 L 288 777 L 251 743 L 219 706 L 195 671 L 173 630 L 159 594 L 149 559 L 143 527 L 140 497 L 141 438 L 150 387 L 149 376 L 142 363 L 130 348 L 119 342 Z M 90 83 L 77 98 L 72 113 L 72 129 L 76 142 L 82 151 L 94 161 L 109 167 L 137 174 L 151 182 L 168 201 L 173 215 L 173 225 L 168 232 L 162 235 L 137 233 L 110 222 L 84 202 L 69 193 L 56 189 L 37 189 L 20 197 L 12 205 L 7 214 L 4 232 L 6 241 L 12 253 L 23 262 L 34 266 L 50 266 L 79 258 L 91 258 L 103 261 L 125 273 L 136 282 L 171 319 L 202 364 L 234 419 L 323 601 L 355 660 L 399 728 L 416 750 L 448 782 L 473 799 L 495 809 L 517 815 L 554 815 L 576 808 L 597 796 L 624 768 L 610 768 L 591 764 L 575 758 L 549 743 L 520 717 L 503 694 L 488 667 L 461 593 L 433 469 L 418 419 L 390 356 L 369 323 L 344 291 L 310 260 L 275 236 L 224 209 L 207 197 L 191 181 L 177 158 L 166 108 L 159 95 L 147 82 L 133 75 L 110 74 Z M 46 203 L 49 204 L 47 205 Z"
      fill="url(#vivayaGreen)"
      fill-rule="evenodd"
    />

    <path
      d="M 1027 191 L 1018 197 L 1007 209 L 1001 220 L 1002 227 L 1011 234 L 1037 243 L 1048 243 L 1055 240 L 1063 233 L 1068 223 L 1069 213 L 1065 200 L 1058 193 L 1050 189 L 1038 188 Z M 971 100 L 955 95 L 936 95 L 914 103 L 897 118 L 891 127 L 884 142 L 875 173 L 867 187 L 855 200 L 843 209 L 823 219 L 758 240 L 722 258 L 700 274 L 675 297 L 643 339 L 623 377 L 610 409 L 592 470 L 564 581 L 553 612 L 544 630 L 532 647 L 517 659 L 502 660 L 495 658 L 481 646 L 491 671 L 514 708 L 534 730 L 558 748 L 591 763 L 610 767 L 624 767 L 648 729 L 668 689 L 722 559 L 762 471 L 782 434 L 806 400 L 849 356 L 875 338 L 913 323 L 956 316 L 964 312 L 975 300 L 978 291 L 976 273 L 966 261 L 959 258 L 952 257 L 941 259 L 928 266 L 910 282 L 899 286 L 885 284 L 880 279 L 878 273 L 881 254 L 887 243 L 900 229 L 915 219 L 925 215 L 955 209 L 969 203 L 986 188 L 991 180 L 999 156 L 998 136 L 990 117 L 981 107 Z M 254 133 L 255 148 L 260 156 L 271 163 L 283 164 L 298 158 L 325 135 L 355 114 L 383 98 L 417 83 L 445 74 L 488 65 L 508 63 L 561 63 L 588 66 L 616 72 L 649 82 L 677 94 L 716 116 L 741 134 L 768 159 L 782 166 L 794 165 L 805 159 L 811 152 L 814 144 L 814 133 L 810 123 L 792 104 L 763 80 L 722 53 L 683 34 L 637 18 L 590 8 L 545 4 L 505 5 L 466 10 L 431 18 L 383 35 L 347 53 L 301 84 L 261 120 Z"
      fill="url(#vivayaOrange)"
      fill-rule="evenodd"
    />
  </g>

  <g transform="translate(0 960)">
    <path
      d="M 683 37 L 671 50 L 658 76 L 582 244 L 582 258 L 586 267 L 594 275 L 602 278 L 612 279 L 624 276 L 635 265 L 648 235 L 653 231 L 753 231 L 757 235 L 769 263 L 778 274 L 793 279 L 804 278 L 811 275 L 822 263 L 824 256 L 823 243 L 740 51 L 729 38 L 714 32 L 695 32 Z M 702 109 L 707 112 L 730 168 L 733 177 L 732 179 L 677 180 L 673 177 L 696 120 Z M 295 32 L 285 36 L 279 41 L 274 49 L 272 60 L 271 255 L 277 269 L 286 276 L 293 278 L 308 278 L 316 275 L 322 270 L 329 255 L 331 56 L 327 44 L 321 37 L 309 32 Z M 16 36 L 10 41 L 4 51 L 4 69 L 87 259 L 98 272 L 106 276 L 121 278 L 138 274 L 147 267 L 155 256 L 241 77 L 245 66 L 245 53 L 240 42 L 235 37 L 223 32 L 211 32 L 205 34 L 194 42 L 178 73 L 125 190 L 121 193 L 114 180 L 58 44 L 49 36 L 39 32 L 26 32 Z M 1118 33 L 1109 38 L 1099 50 L 1013 237 L 1010 249 L 1012 263 L 1017 271 L 1027 277 L 1044 278 L 1059 270 L 1065 261 L 1077 234 L 1082 230 L 1178 230 L 1185 236 L 1197 265 L 1204 273 L 1215 278 L 1233 277 L 1239 274 L 1247 265 L 1250 258 L 1250 243 L 1202 125 L 1172 57 L 1166 46 L 1158 38 L 1149 33 L 1141 31 L 1126 31 Z M 1132 108 L 1134 109 L 1156 162 L 1160 177 L 1104 178 L 1103 173 L 1127 115 Z M 823 33 L 810 43 L 806 52 L 806 65 L 810 74 L 876 169 L 887 188 L 889 260 L 893 268 L 905 277 L 915 279 L 929 277 L 940 269 L 946 257 L 947 195 L 949 187 L 1026 75 L 1031 62 L 1031 54 L 1028 45 L 1020 36 L 1007 31 L 998 31 L 985 36 L 978 43 L 922 127 L 917 129 L 860 44 L 852 36 L 843 32 L 830 31 Z M 591 36 L 585 33 L 571 31 L 555 37 L 548 44 L 477 193 L 474 191 L 468 179 L 420 60 L 410 41 L 394 32 L 381 32 L 369 37 L 361 46 L 358 54 L 358 66 L 362 78 L 438 251 L 446 265 L 456 274 L 468 278 L 487 277 L 496 273 L 510 257 L 600 73 L 603 63 L 603 54 L 599 44 Z"
      fill="url(#vivayaOrange)"
      fill-rule="evenodd"
    />
  </g>
</svg>
